<?xml version="1.0" encoding="UTF-8"?>
<svg xmlns="http://www.w3.org/2000/svg" width="1400" height="900" viewBox="0 0 1400 900" role="img" aria-label="Case A 100 nm exact-P1, dt=2.5 us: particle 118">
<title>Case A 100 nm exact-P1, dt=2.5 us: particle 118</title>
<rect width="100%" height="100%" fill="#FFFFFF"/>
<style>text{font-family:Arial,Helvetica,sans-serif;fill:#1F2937}.axis{stroke:#475569;stroke-width:1}.grid{stroke:#D7DEE8;stroke-width:1}.label{font-size:13px}.small{font-size:11px;fill:#64748B}.title{font-size:24px;font-weight:700}.subtitle{font-size:14px;fill:#64748B}</style>
<text x="65.000" y="48.000" class="title" text-anchor="start">Case A 100 nm exact-P1, dt=2.5 us: particle 118</text>
<text x="65.000" y="76.000" class="subtitle" text-anchor="start">Each panel uses its own displayed range; COMSOL solid orange, solver dashed blue</text>
<line x1="900.000" y1="60.000" x2="942.000" y2="60.000" stroke="#D97706" stroke-width="2.500" opacity="1.000"/>
<text x="950.000" y="65.000" class="label" text-anchor="start">COMSOL reference</text>
<line x1="1090.000" y1="60.000" x2="1132.000" y2="60.000" stroke="#1D4ED8" stroke-width="2.000" opacity="1.000" stroke-dasharray="8 5"/>
<text x="1140.000" y="65.000" class="label" text-anchor="start">solver candidate</text>
<rect x="115.000" y="135.000" width="525.000" height="270.000" fill="none" stroke="#94A3B8" stroke-width="1.000"/>
<line x1="246.250" y1="135.000" x2="246.250" y2="405.000" stroke="#D7DEE8" stroke-width="1.000" opacity="1.000"/>
<line x1="115.000" y1="202.500" x2="640.000" y2="202.500" stroke="#D7DEE8" stroke-width="1.000" opacity="1.000"/>
<line x1="377.500" y1="135.000" x2="377.500" y2="405.000" stroke="#D7DEE8" stroke-width="1.000" opacity="1.000"/>
<line x1="115.000" y1="270.000" x2="640.000" y2="270.000" stroke="#D7DEE8" stroke-width="1.000" opacity="1.000"/>
<line x1="508.750" y1="135.000" x2="508.750" y2="405.000" stroke="#D7DEE8" stroke-width="1.000" opacity="1.000"/>
<line x1="115.000" y1="337.500" x2="640.000" y2="337.500" stroke="#D7DEE8" stroke-width="1.000" opacity="1.000"/>
<text x="115.000" y="423.000" class="small" text-anchor="start">1.560e-01</text>
<text x="640.000" y="423.000" class="small" text-anchor="end">1.560e-01</text>
<text x="107.000" y="405.000" class="small" text-anchor="end">2.550e-02</text>
<text x="107.000" y="145.000" class="small" text-anchor="end">2.556e-02</text>
<text x="377.500" y="443.000" class="label" text-anchor="middle">r (m)</text>
<text x="57.000" y="270.000" class="label" text-anchor="middle" transform="rotate(-90.0 57.000 270.000)">z (m)</text>
<polyline points="126.154,392.727 125.266,391.082 125.096,389.198 125.644,387.074 126.907,384.712 128.883,382.112 131.570,379.274 134.968,376.201 139.072,372.892 143.882,369.347 149.395,365.568 155.609,361.556 162.522,357.311 170.132,352.833 178.436,348.124 187.432,343.185 197.119,338.016 207.492,332.617 218.551,326.991 230.293,321.137 242.714,315.057 255.814,308.751 269.589,302.220 284.036,295.465 299.153,288.487 314.938,281.287 331.387,273.865 348.499,266.224 366.270,258.362 384.697,250.283 403.778,241.986 423.510,233.472 443.890,224.743 464.915,215.800 486.582,206.642 508.889,197.273 531.831,187.692 555.407,177.900 579.613,167.899 604.447,157.689 629.904,147.273" fill="none" stroke="#D97706" stroke-width="2.400" opacity="1.000" stroke-linejoin="round" stroke-linecap="round"/>
<polyline points="126.154,392.727 125.266,391.082 125.096,389.198 125.644,387.074 126.907,384.712 128.883,382.112 131.570,379.274 134.968,376.201 139.072,372.892 143.882,369.347 149.395,365.568 155.609,361.556 162.522,357.311 170.132,352.833 178.436,348.124 187.432,343.185 197.119,338.016 207.492,332.617 218.551,326.991 230.293,321.137 242.714,315.057 255.814,308.751 269.589,302.220 284.036,295.465 299.153,288.487 314.938,281.287 331.387,273.865 348.499,266.224 366.270,258.362 384.697,250.283 403.778,241.986 423.510,233.472 443.890,224.743 464.915,215.800 486.582,206.642 508.889,197.273 531.831,187.692 555.407,177.900 579.613,167.899 604.447,157.689 629.904,147.273" fill="none" stroke="#1D4ED8" stroke-width="1.800" opacity="1.000" stroke-linejoin="round" stroke-linecap="round" stroke-dasharray="8 5"/>
<rect x="800.000" y="135.000" width="525.000" height="270.000" fill="none" stroke="#94A3B8" stroke-width="1.000"/>
<line x1="931.250" y1="135.000" x2="931.250" y2="405.000" stroke="#D7DEE8" stroke-width="1.000" opacity="1.000"/>
<line x1="800.000" y1="202.500" x2="1325.000" y2="202.500" stroke="#D7DEE8" stroke-width="1.000" opacity="1.000"/>
<line x1="1062.500" y1="135.000" x2="1062.500" y2="405.000" stroke="#D7DEE8" stroke-width="1.000" opacity="1.000"/>
<line x1="800.000" y1="270.000" x2="1325.000" y2="270.000" stroke="#D7DEE8" stroke-width="1.000" opacity="1.000"/>
<line x1="1193.750" y1="135.000" x2="1193.750" y2="405.000" stroke="#D7DEE8" stroke-width="1.000" opacity="1.000"/>
<line x1="800.000" y1="337.500" x2="1325.000" y2="337.500" stroke="#D7DEE8" stroke-width="1.000" opacity="1.000"/>
<text x="800.000" y="423.000" class="small" text-anchor="start">-8.000e-06</text>
<text x="1325.000" y="423.000" class="small" text-anchor="end">4.080e-04</text>
<text x="792.000" y="405.000" class="small" text-anchor="end">1.560e-01</text>
<text x="792.000" y="145.000" class="small" text-anchor="end">1.560e-01</text>
<text x="1062.500" y="443.000" class="label" text-anchor="middle">time (s)</text>
<text x="742.000" y="270.000" class="label" text-anchor="middle" transform="rotate(-90.0 742.000 270.000)">r (m)</text>
<polyline points="810.096,392.213 822.716,392.645 835.337,392.727 847.957,392.461 860.577,391.847 873.197,390.886 885.817,389.579 898.438,387.927 911.058,385.932 923.678,383.593 936.298,380.912 948.918,377.891 961.538,374.530 974.159,370.829 986.779,366.792 999.399,362.417 1012.019,357.708 1024.639,352.663 1037.260,347.286 1049.880,341.577 1062.500,335.537 1075.120,329.168 1087.740,322.470 1100.361,315.445 1112.981,308.095 1125.601,300.420 1138.221,292.422 1150.841,284.101 1163.462,275.461 1176.082,266.501 1188.702,257.223 1201.322,247.628 1213.942,237.719 1226.562,227.496 1239.183,216.961 1251.803,206.114 1264.423,194.959 1277.043,183.495 1289.663,171.726 1302.284,159.651 1314.904,147.273" fill="none" stroke="#D97706" stroke-width="2.400" opacity="1.000" stroke-linejoin="round" stroke-linecap="round"/>
<polyline points="810.096,392.213 822.716,392.645 835.337,392.727 847.957,392.461 860.577,391.847 873.197,390.886 885.817,389.579 898.438,387.927 911.058,385.932 923.678,383.593 936.298,380.912 948.918,377.891 961.538,374.530 974.159,370.829 986.779,366.792 999.399,362.417 1012.019,357.708 1024.639,352.663 1037.260,347.286 1049.880,341.577 1062.500,335.537 1075.120,329.168 1087.740,322.470 1100.361,315.445 1112.981,308.095 1125.601,300.420 1138.221,292.422 1150.841,284.101 1163.462,275.461 1176.082,266.501 1188.702,257.223 1201.322,247.628 1213.942,237.719 1226.562,227.496 1239.183,216.961 1251.803,206.114 1264.423,194.959 1277.043,183.495 1289.663,171.726 1302.284,159.651 1314.904,147.273" fill="none" stroke="#1D4ED8" stroke-width="1.800" opacity="1.000" stroke-linejoin="round" stroke-linecap="round" stroke-dasharray="8 5"/>
<rect x="115.000" y="540.000" width="525.000" height="270.000" fill="none" stroke="#94A3B8" stroke-width="1.000"/>
<line x1="246.250" y1="540.000" x2="246.250" y2="810.000" stroke="#D7DEE8" stroke-width="1.000" opacity="1.000"/>
<line x1="115.000" y1="607.500" x2="640.000" y2="607.500" stroke="#D7DEE8" stroke-width="1.000" opacity="1.000"/>
<line x1="377.500" y1="540.000" x2="377.500" y2="810.000" stroke="#D7DEE8" stroke-width="1.000" opacity="1.000"/>
<line x1="115.000" y1="675.000" x2="640.000" y2="675.000" stroke="#D7DEE8" stroke-width="1.000" opacity="1.000"/>
<line x1="508.750" y1="540.000" x2="508.750" y2="810.000" stroke="#D7DEE8" stroke-width="1.000" opacity="1.000"/>
<line x1="115.000" y1="742.500" x2="640.000" y2="742.500" stroke="#D7DEE8" stroke-width="1.000" opacity="1.000"/>
<text x="115.000" y="828.000" class="small" text-anchor="start">-8.000e-06</text>
<text x="640.000" y="828.000" class="small" text-anchor="end">4.080e-04</text>
<text x="107.000" y="810.000" class="small" text-anchor="end">2.550e-02</text>
<text x="107.000" y="550.000" class="small" text-anchor="end">2.556e-02</text>
<text x="377.500" y="848.000" class="label" text-anchor="middle">time (s)</text>
<text x="57.000" y="675.000" class="label" text-anchor="middle" transform="rotate(-90.0 57.000 675.000)">z (m)</text>
<polyline points="125.096,797.727 137.716,796.082 150.337,794.198 162.957,792.074 175.577,789.712 188.197,787.112 200.817,784.274 213.438,781.201 226.058,777.892 238.678,774.347 251.298,770.568 263.918,766.556 276.538,762.311 289.159,757.833 301.779,753.124 314.399,748.185 327.019,743.016 339.639,737.617 352.260,731.991 364.880,726.137 377.500,720.057 390.120,713.751 402.740,707.220 415.361,700.465 427.981,693.487 440.601,686.287 453.221,678.865 465.841,671.224 478.462,663.362 491.082,655.283 503.702,646.986 516.322,638.472 528.942,629.743 541.562,620.800 554.183,611.642 566.803,602.273 579.423,592.692 592.043,582.900 604.663,572.899 617.284,562.689 629.904,552.273" fill="none" stroke="#D97706" stroke-width="2.400" opacity="1.000" stroke-linejoin="round" stroke-linecap="round"/>
<polyline points="125.096,797.727 137.716,796.082 150.337,794.198 162.957,792.074 175.577,789.712 188.197,787.112 200.817,784.274 213.438,781.201 226.058,777.892 238.678,774.347 251.298,770.568 263.918,766.556 276.538,762.311 289.159,757.833 301.779,753.124 314.399,748.185 327.019,743.016 339.639,737.617 352.260,731.991 364.880,726.137 377.500,720.057 390.120,713.751 402.740,707.220 415.361,700.465 427.981,693.487 440.601,686.287 453.221,678.865 465.841,671.224 478.462,663.362 491.082,655.283 503.702,646.986 516.322,638.472 528.942,629.743 541.562,620.800 554.183,611.642 566.803,602.273 579.423,592.692 592.043,582.900 604.663,572.899 617.284,562.689 629.904,552.273" fill="none" stroke="#1D4ED8" stroke-width="1.800" opacity="1.000" stroke-linejoin="round" stroke-linecap="round" stroke-dasharray="8 5"/>
<rect x="800.000" y="540.000" width="525.000" height="270.000" fill="none" stroke="#94A3B8" stroke-width="1.000"/>
<line x1="931.250" y1="540.000" x2="931.250" y2="810.000" stroke="#D7DEE8" stroke-width="1.000" opacity="1.000"/>
<line x1="800.000" y1="607.500" x2="1325.000" y2="607.500" stroke="#D7DEE8" stroke-width="1.000" opacity="1.000"/>
<line x1="1062.500" y1="540.000" x2="1062.500" y2="810.000" stroke="#D7DEE8" stroke-width="1.000" opacity="1.000"/>
<line x1="800.000" y1="675.000" x2="1325.000" y2="675.000" stroke="#D7DEE8" stroke-width="1.000" opacity="1.000"/>
<line x1="1193.750" y1="540.000" x2="1193.750" y2="810.000" stroke="#D7DEE8" stroke-width="1.000" opacity="1.000"/>
<line x1="800.000" y1="742.500" x2="1325.000" y2="742.500" stroke="#D7DEE8" stroke-width="1.000" opacity="1.000"/>
<text x="800.000" y="828.000" class="small" text-anchor="start">0.000e+00</text>
<text x="1325.000" y="828.000" class="small" text-anchor="end">4.000e-04</text>
<text x="792.000" y="810.000" class="small" text-anchor="end">-1.034e-16</text>
<text x="792.000" y="550.000" class="small" text-anchor="end">1.397e-15</text>
<text x="1062.500" y="848.000" class="label" text-anchor="middle">time (s)</text>
<text x="742.000" y="675.000" class="label" text-anchor="middle" transform="rotate(-90.0 742.000 675.000)">position difference (m)</text>
<polyline points="800.000,791.379 813.125,771.356 826.250,766.391 839.375,756.401 852.500,761.344 865.625,756.206 878.750,751.172 891.875,735.994 905.000,726.067 918.125,706.057 931.250,710.964 944.375,715.998 957.500,715.689 970.625,715.689 983.750,715.598 996.875,705.340 1010.000,710.565 1023.125,690.429 1036.250,695.634 1049.375,685.481 1062.500,670.614 1075.625,665.789 1088.750,650.547 1101.875,660.544 1115.000,665.169 1128.125,664.786 1141.250,654.918 1154.375,644.458 1167.500,639.323 1180.625,644.353 1193.750,639.108 1206.875,629.158 1220.000,623.913 1233.125,613.856 1246.250,618.992 1259.375,608.827 1272.500,593.632 1285.625,588.707 1298.750,583.677 1311.875,573.615 1325.000,558.621" fill="none" stroke="#7C3AED" stroke-width="2.200" opacity="1.000" stroke-linejoin="round" stroke-linecap="round"/>
<text x="378.000" y="122.000" class="label" text-anchor="middle">R-Z path</text>
<text x="1062.000" y="122.000" class="label" text-anchor="middle">radial coordinate</text>
<text x="378.000" y="527.000" class="label" text-anchor="middle">axial coordinate</text>
<text x="1062.000" y="527.000" class="label" text-anchor="middle">pointwise position difference</text>
</svg>
