<?xml version="1.0" encoding="UTF-8"?>
<svg xmlns="http://www.w3.org/2000/svg" width="1400" height="900" viewBox="0 0 1400 900" role="img" aria-label="Case A 100 nm exact-P1, dt=2.5 us: particle 156">
<title>Case A 100 nm exact-P1, dt=2.5 us: particle 156</title>
<rect width="100%" height="100%" fill="#FFFFFF"/>
<style>text{font-family:Arial,Helvetica,sans-serif;fill:#1F2937}.axis{stroke:#475569;stroke-width:1}.grid{stroke:#D7DEE8;stroke-width:1}.label{font-size:13px}.small{font-size:11px;fill:#64748B}.title{font-size:24px;font-weight:700}.subtitle{font-size:14px;fill:#64748B}</style>
<text x="65.000" y="48.000" class="title" text-anchor="start">Case A 100 nm exact-P1, dt=2.5 us: particle 156</text>
<text x="65.000" y="76.000" class="subtitle" text-anchor="start">Each panel uses its own displayed range; COMSOL solid orange, solver dashed blue</text>
<line x1="900.000" y1="60.000" x2="942.000" y2="60.000" stroke="#D97706" stroke-width="2.500" opacity="1.000"/>
<text x="950.000" y="65.000" class="label" text-anchor="start">COMSOL reference</text>
<line x1="1090.000" y1="60.000" x2="1132.000" y2="60.000" stroke="#1D4ED8" stroke-width="2.000" opacity="1.000" stroke-dasharray="8 5"/>
<text x="1140.000" y="65.000" class="label" text-anchor="start">solver candidate</text>
<rect x="115.000" y="135.000" width="525.000" height="270.000" fill="none" stroke="#94A3B8" stroke-width="1.000"/>
<line x1="246.250" y1="135.000" x2="246.250" y2="405.000" stroke="#D7DEE8" stroke-width="1.000" opacity="1.000"/>
<line x1="115.000" y1="202.500" x2="640.000" y2="202.500" stroke="#D7DEE8" stroke-width="1.000" opacity="1.000"/>
<line x1="377.500" y1="135.000" x2="377.500" y2="405.000" stroke="#D7DEE8" stroke-width="1.000" opacity="1.000"/>
<line x1="115.000" y1="270.000" x2="640.000" y2="270.000" stroke="#D7DEE8" stroke-width="1.000" opacity="1.000"/>
<line x1="508.750" y1="135.000" x2="508.750" y2="405.000" stroke="#D7DEE8" stroke-width="1.000" opacity="1.000"/>
<line x1="115.000" y1="337.500" x2="640.000" y2="337.500" stroke="#D7DEE8" stroke-width="1.000" opacity="1.000"/>
<text x="115.000" y="423.000" class="small" text-anchor="start">1.620e-01</text>
<text x="640.000" y="423.000" class="small" text-anchor="end">1.620e-01</text>
<text x="107.000" y="405.000" class="small" text-anchor="end">2.350e-02</text>
<text x="107.000" y="145.000" class="small" text-anchor="end">2.360e-02</text>
<text x="377.500" y="443.000" class="label" text-anchor="middle">r (m)</text>
<text x="57.000" y="270.000" class="label" text-anchor="middle" transform="rotate(-90.0 57.000 270.000)">z (m)</text>
<polyline points="125.096,392.727 125.552,392.186 126.655,391.347 128.404,390.210 130.798,388.776 133.834,387.046 137.512,385.020 141.829,382.700 146.784,380.087 152.376,377.180 158.601,373.981 165.459,370.491 172.948,366.710 181.065,362.641 189.809,358.282 199.178,353.637 209.169,348.705 219.781,343.487 231.012,337.985 242.859,332.199 255.320,326.131 268.394,319.782 282.077,313.152 296.368,306.244 311.264,299.057 326.763,291.594 342.863,283.855 359.561,275.842 376.854,267.555 394.741,258.997 413.218,250.168 432.284,241.069 451.935,231.702 472.169,222.068 492.983,212.169 514.375,202.005 536.342,191.579 558.881,180.891 581.990,169.943 605.665,158.737 629.904,147.273" fill="none" stroke="#D97706" stroke-width="2.400" opacity="1.000" stroke-linejoin="round" stroke-linecap="round"/>
<polyline points="125.096,392.727 125.552,392.186 126.655,391.347 128.404,390.210 130.798,388.776 133.834,387.046 137.512,385.020 141.829,382.700 146.784,380.087 152.376,377.180 158.601,373.981 165.459,370.491 172.948,366.710 181.065,362.641 189.809,358.282 199.178,353.637 209.169,348.705 219.781,343.487 231.012,337.985 242.859,332.199 255.320,326.131 268.394,319.782 282.077,313.152 296.368,306.244 311.264,299.057 326.763,291.594 342.863,283.855 359.561,275.842 376.854,267.555 394.741,258.997 413.218,250.168 432.284,241.069 451.935,231.702 472.169,222.068 492.983,212.169 514.375,202.005 536.342,191.579 558.881,180.891 581.990,169.943 605.665,158.737 629.904,147.273" fill="none" stroke="#1D4ED8" stroke-width="1.800" opacity="1.000" stroke-linejoin="round" stroke-linecap="round" stroke-dasharray="8 5"/>
<rect x="800.000" y="135.000" width="525.000" height="270.000" fill="none" stroke="#94A3B8" stroke-width="1.000"/>
<line x1="931.250" y1="135.000" x2="931.250" y2="405.000" stroke="#D7DEE8" stroke-width="1.000" opacity="1.000"/>
<line x1="800.000" y1="202.500" x2="1325.000" y2="202.500" stroke="#D7DEE8" stroke-width="1.000" opacity="1.000"/>
<line x1="1062.500" y1="135.000" x2="1062.500" y2="405.000" stroke="#D7DEE8" stroke-width="1.000" opacity="1.000"/>
<line x1="800.000" y1="270.000" x2="1325.000" y2="270.000" stroke="#D7DEE8" stroke-width="1.000" opacity="1.000"/>
<line x1="1193.750" y1="135.000" x2="1193.750" y2="405.000" stroke="#D7DEE8" stroke-width="1.000" opacity="1.000"/>
<line x1="800.000" y1="337.500" x2="1325.000" y2="337.500" stroke="#D7DEE8" stroke-width="1.000" opacity="1.000"/>
<text x="800.000" y="423.000" class="small" text-anchor="start">-8.000e-06</text>
<text x="1325.000" y="423.000" class="small" text-anchor="end">4.080e-04</text>
<text x="792.000" y="405.000" class="small" text-anchor="end">1.620e-01</text>
<text x="792.000" y="145.000" class="small" text-anchor="end">1.620e-01</text>
<text x="1062.500" y="443.000" class="label" text-anchor="middle">time (s)</text>
<text x="742.000" y="270.000" class="label" text-anchor="middle" transform="rotate(-90.0 742.000 270.000)">r (m)</text>
<polyline points="810.096,392.727 822.716,392.506 835.337,391.969 847.957,391.119 860.577,389.955 873.197,388.479 885.817,386.690 898.438,384.591 911.058,382.182 923.678,379.463 936.298,376.436 948.918,373.101 961.538,369.460 974.159,365.513 986.779,361.262 999.399,356.706 1012.019,351.848 1024.639,346.688 1037.260,341.227 1049.880,335.467 1062.500,329.408 1075.120,323.051 1087.740,316.398 1100.361,309.449 1112.981,302.206 1125.601,294.670 1138.221,286.842 1150.841,278.723 1163.462,270.314 1176.082,261.617 1188.702,252.633 1201.322,243.362 1213.942,233.807 1226.562,223.969 1239.183,213.848 1251.803,203.447 1264.423,192.766 1277.043,181.806 1289.663,170.570 1302.284,159.059 1314.904,147.273" fill="none" stroke="#D97706" stroke-width="2.400" opacity="1.000" stroke-linejoin="round" stroke-linecap="round"/>
<polyline points="810.096,392.727 822.716,392.506 835.337,391.969 847.957,391.119 860.577,389.955 873.197,388.479 885.817,386.690 898.438,384.591 911.058,382.182 923.678,379.463 936.298,376.436 948.918,373.101 961.538,369.460 974.159,365.513 986.779,361.262 999.399,356.706 1012.019,351.848 1024.639,346.688 1037.260,341.227 1049.880,335.467 1062.500,329.408 1075.120,323.051 1087.740,316.398 1100.361,309.449 1112.981,302.206 1125.601,294.670 1138.221,286.842 1150.841,278.723 1163.462,270.314 1176.082,261.617 1188.702,252.633 1201.322,243.362 1213.942,233.807 1226.562,223.969 1239.183,213.848 1251.803,203.447 1264.423,192.766 1277.043,181.806 1289.663,170.570 1302.284,159.059 1314.904,147.273" fill="none" stroke="#1D4ED8" stroke-width="1.800" opacity="1.000" stroke-linejoin="round" stroke-linecap="round" stroke-dasharray="8 5"/>
<rect x="115.000" y="540.000" width="525.000" height="270.000" fill="none" stroke="#94A3B8" stroke-width="1.000"/>
<line x1="246.250" y1="540.000" x2="246.250" y2="810.000" stroke="#D7DEE8" stroke-width="1.000" opacity="1.000"/>
<line x1="115.000" y1="607.500" x2="640.000" y2="607.500" stroke="#D7DEE8" stroke-width="1.000" opacity="1.000"/>
<line x1="377.500" y1="540.000" x2="377.500" y2="810.000" stroke="#D7DEE8" stroke-width="1.000" opacity="1.000"/>
<line x1="115.000" y1="675.000" x2="640.000" y2="675.000" stroke="#D7DEE8" stroke-width="1.000" opacity="1.000"/>
<line x1="508.750" y1="540.000" x2="508.750" y2="810.000" stroke="#D7DEE8" stroke-width="1.000" opacity="1.000"/>
<line x1="115.000" y1="742.500" x2="640.000" y2="742.500" stroke="#D7DEE8" stroke-width="1.000" opacity="1.000"/>
<text x="115.000" y="828.000" class="small" text-anchor="start">-8.000e-06</text>
<text x="640.000" y="828.000" class="small" text-anchor="end">4.080e-04</text>
<text x="107.000" y="810.000" class="small" text-anchor="end">2.350e-02</text>
<text x="107.000" y="550.000" class="small" text-anchor="end">2.360e-02</text>
<text x="377.500" y="848.000" class="label" text-anchor="middle">time (s)</text>
<text x="57.000" y="675.000" class="label" text-anchor="middle" transform="rotate(-90.0 57.000 675.000)">z (m)</text>
<polyline points="125.096,797.727 137.716,797.186 150.337,796.347 162.957,795.210 175.577,793.776 188.197,792.046 200.817,790.020 213.438,787.700 226.058,785.087 238.678,782.180 251.298,778.981 263.918,775.491 276.538,771.710 289.159,767.641 301.779,763.282 314.399,758.637 327.019,753.705 339.639,748.487 352.260,742.985 364.880,737.199 377.500,731.131 390.120,724.782 402.740,718.152 415.361,711.244 427.981,704.057 440.601,696.594 453.221,688.855 465.841,680.842 478.462,672.555 491.082,663.997 503.702,655.168 516.322,646.069 528.942,636.702 541.562,627.068 554.183,617.169 566.803,607.005 579.423,596.579 592.043,585.891 604.663,574.943 617.284,563.737 629.904,552.273" fill="none" stroke="#D97706" stroke-width="2.400" opacity="1.000" stroke-linejoin="round" stroke-linecap="round"/>
<polyline points="125.096,797.727 137.716,797.186 150.337,796.347 162.957,795.210 175.577,793.776 188.197,792.046 200.817,790.020 213.438,787.700 226.058,785.087 238.678,782.180 251.298,778.981 263.918,775.491 276.538,771.710 289.159,767.641 301.779,763.282 314.399,758.637 327.019,753.705 339.639,748.487 352.260,742.985 364.880,737.199 377.500,731.131 390.120,724.782 402.740,718.152 415.361,711.244 427.981,704.057 440.601,696.594 453.221,688.855 465.841,680.842 478.462,672.555 491.082,663.997 503.702,655.168 516.322,646.069 528.942,636.702 541.562,627.068 554.183,617.169 566.803,607.005 579.423,596.579 592.043,585.891 604.663,574.943 617.284,563.737 629.904,552.273" fill="none" stroke="#1D4ED8" stroke-width="1.800" opacity="1.000" stroke-linejoin="round" stroke-linecap="round" stroke-dasharray="8 5"/>
<rect x="800.000" y="540.000" width="525.000" height="270.000" fill="none" stroke="#94A3B8" stroke-width="1.000"/>
<line x1="931.250" y1="540.000" x2="931.250" y2="810.000" stroke="#D7DEE8" stroke-width="1.000" opacity="1.000"/>
<line x1="800.000" y1="607.500" x2="1325.000" y2="607.500" stroke="#D7DEE8" stroke-width="1.000" opacity="1.000"/>
<line x1="1062.500" y1="540.000" x2="1062.500" y2="810.000" stroke="#D7DEE8" stroke-width="1.000" opacity="1.000"/>
<line x1="800.000" y1="675.000" x2="1325.000" y2="675.000" stroke="#D7DEE8" stroke-width="1.000" opacity="1.000"/>
<line x1="1193.750" y1="540.000" x2="1193.750" y2="810.000" stroke="#D7DEE8" stroke-width="1.000" opacity="1.000"/>
<line x1="800.000" y1="742.500" x2="1325.000" y2="742.500" stroke="#D7DEE8" stroke-width="1.000" opacity="1.000"/>
<text x="800.000" y="828.000" class="small" text-anchor="start">0.000e+00</text>
<text x="1325.000" y="828.000" class="small" text-anchor="end">4.000e-04</text>
<text x="792.000" y="810.000" class="small" text-anchor="end">-1.214e-16</text>
<text x="792.000" y="550.000" class="small" text-anchor="end">1.639e-15</text>
<text x="1062.500" y="848.000" class="label" text-anchor="middle">time (s)</text>
<text x="742.000" y="675.000" class="label" text-anchor="middle" transform="rotate(-90.0 742.000 675.000)">position difference (m)</text>
<polyline points="800.000,791.379 813.125,789.250 826.250,785.722 839.375,785.358 852.500,777.541 865.625,769.299 878.750,760.523 891.875,759.730 905.000,763.903 918.125,751.607 931.250,747.358 944.375,751.607 957.500,746.925 970.625,746.925 983.750,738.444 996.875,717.138 1010.000,717.477 1023.125,700.150 1036.250,696.169 1049.375,696.169 1062.500,691.885 1075.625,683.740 1088.750,674.830 1101.875,675.082 1115.000,670.792 1128.125,670.628 1141.250,666.422 1154.375,661.791 1167.500,644.554 1180.625,640.267 1193.750,635.891 1206.875,631.424 1220.000,623.117 1233.125,610.336 1246.250,610.336 1259.375,601.758 1272.500,592.842 1285.625,575.941 1298.750,571.570 1311.875,571.403 1325.000,558.621" fill="none" stroke="#7C3AED" stroke-width="2.200" opacity="1.000" stroke-linejoin="round" stroke-linecap="round"/>
<text x="378.000" y="122.000" class="label" text-anchor="middle">R-Z path</text>
<text x="1062.000" y="122.000" class="label" text-anchor="middle">radial coordinate</text>
<text x="378.000" y="527.000" class="label" text-anchor="middle">axial coordinate</text>
<text x="1062.000" y="527.000" class="label" text-anchor="middle">pointwise position difference</text>
</svg>
