<?xml version="1.0" encoding="UTF-8"?>
<svg xmlns="http://www.w3.org/2000/svg" width="1400" height="900" viewBox="0 0 1400 900" role="img" aria-label="Case A 100 nm exact-P1, dt=2.5 us: particle 12">
<title>Case A 100 nm exact-P1, dt=2.5 us: particle 12</title>
<rect width="100%" height="100%" fill="#FFFFFF"/>
<style>text{font-family:Arial,Helvetica,sans-serif;fill:#1F2937}.axis{stroke:#475569;stroke-width:1}.grid{stroke:#D7DEE8;stroke-width:1}.label{font-size:13px}.small{font-size:11px;fill:#64748B}.title{font-size:24px;font-weight:700}.subtitle{font-size:14px;fill:#64748B}</style>
<text x="65.000" y="48.000" class="title" text-anchor="start">Case A 100 nm exact-P1, dt=2.5 us: particle 12</text>
<text x="65.000" y="76.000" class="subtitle" text-anchor="start">Each panel uses its own displayed range; COMSOL solid orange, solver dashed blue</text>
<line x1="900.000" y1="60.000" x2="942.000" y2="60.000" stroke="#D97706" stroke-width="2.500" opacity="1.000"/>
<text x="950.000" y="65.000" class="label" text-anchor="start">COMSOL reference</text>
<line x1="1090.000" y1="60.000" x2="1132.000" y2="60.000" stroke="#1D4ED8" stroke-width="2.000" opacity="1.000" stroke-dasharray="8 5"/>
<text x="1140.000" y="65.000" class="label" text-anchor="start">solver candidate</text>
<rect x="115.000" y="135.000" width="525.000" height="270.000" fill="none" stroke="#94A3B8" stroke-width="1.000"/>
<line x1="246.250" y1="135.000" x2="246.250" y2="405.000" stroke="#D7DEE8" stroke-width="1.000" opacity="1.000"/>
<line x1="115.000" y1="202.500" x2="640.000" y2="202.500" stroke="#D7DEE8" stroke-width="1.000" opacity="1.000"/>
<line x1="377.500" y1="135.000" x2="377.500" y2="405.000" stroke="#D7DEE8" stroke-width="1.000" opacity="1.000"/>
<line x1="115.000" y1="270.000" x2="640.000" y2="270.000" stroke="#D7DEE8" stroke-width="1.000" opacity="1.000"/>
<line x1="508.750" y1="135.000" x2="508.750" y2="405.000" stroke="#D7DEE8" stroke-width="1.000" opacity="1.000"/>
<line x1="115.000" y1="337.500" x2="640.000" y2="337.500" stroke="#D7DEE8" stroke-width="1.000" opacity="1.000"/>
<text x="115.000" y="423.000" class="small" text-anchor="start">1.410e-01</text>
<text x="640.000" y="423.000" class="small" text-anchor="end">1.410e-01</text>
<text x="107.000" y="405.000" class="small" text-anchor="end">2.499e-02</text>
<text x="107.000" y="145.000" class="small" text-anchor="end">2.518e-02</text>
<text x="377.500" y="443.000" class="label" text-anchor="middle">r (m)</text>
<text x="57.000" y="270.000" class="label" text-anchor="middle" transform="rotate(-90.0 57.000 270.000)">z (m)</text>
<polyline points="125.096,392.727 136.702,391.734 148.361,390.466 160.074,388.924 171.839,387.109 183.658,385.021 195.530,382.662 207.455,380.031 219.432,377.130 231.462,373.960 243.545,370.520 255.680,366.813 267.867,362.840 280.106,358.600 292.398,354.094 304.742,349.325 317.137,344.292 329.584,338.997 342.083,333.441 354.634,327.624 367.236,321.548 379.889,315.213 392.593,308.621 405.349,301.773 418.155,294.670 431.013,287.313 443.921,279.703 456.880,271.841 469.889,263.728 482.949,255.366 496.059,246.756 509.219,237.898 522.430,228.795 535.690,219.448 549.001,209.857 562.361,200.023 575.771,189.950 589.230,179.636 602.739,169.085 616.297,158.296 629.904,147.273" fill="none" stroke="#D97706" stroke-width="2.400" opacity="1.000" stroke-linejoin="round" stroke-linecap="round"/>
<polyline points="125.096,392.727 136.702,391.734 148.361,390.466 160.074,388.924 171.839,387.109 183.658,385.021 195.530,382.662 207.455,380.031 219.432,377.130 231.462,373.960 243.545,370.520 255.680,366.813 267.867,362.840 280.106,358.600 292.398,354.094 304.742,349.325 317.137,344.292 329.584,338.997 342.083,333.441 354.634,327.624 367.236,321.548 379.889,315.213 392.593,308.621 405.349,301.773 418.155,294.670 431.013,287.313 443.921,279.703 456.880,271.841 469.889,263.728 482.949,255.366 496.059,246.756 509.219,237.898 522.430,228.795 535.690,219.448 549.001,209.857 562.361,200.023 575.771,189.950 589.230,179.636 602.739,169.085 616.297,158.296 629.904,147.273" fill="none" stroke="#1D4ED8" stroke-width="1.800" opacity="1.000" stroke-linejoin="round" stroke-linecap="round" stroke-dasharray="8 5"/>
<rect x="800.000" y="135.000" width="525.000" height="270.000" fill="none" stroke="#94A3B8" stroke-width="1.000"/>
<line x1="931.250" y1="135.000" x2="931.250" y2="405.000" stroke="#D7DEE8" stroke-width="1.000" opacity="1.000"/>
<line x1="800.000" y1="202.500" x2="1325.000" y2="202.500" stroke="#D7DEE8" stroke-width="1.000" opacity="1.000"/>
<line x1="1062.500" y1="135.000" x2="1062.500" y2="405.000" stroke="#D7DEE8" stroke-width="1.000" opacity="1.000"/>
<line x1="800.000" y1="270.000" x2="1325.000" y2="270.000" stroke="#D7DEE8" stroke-width="1.000" opacity="1.000"/>
<line x1="1193.750" y1="135.000" x2="1193.750" y2="405.000" stroke="#D7DEE8" stroke-width="1.000" opacity="1.000"/>
<line x1="800.000" y1="337.500" x2="1325.000" y2="337.500" stroke="#D7DEE8" stroke-width="1.000" opacity="1.000"/>
<text x="800.000" y="423.000" class="small" text-anchor="start">-8.000e-06</text>
<text x="1325.000" y="423.000" class="small" text-anchor="end">4.080e-04</text>
<text x="792.000" y="405.000" class="small" text-anchor="end">1.410e-01</text>
<text x="792.000" y="145.000" class="small" text-anchor="end">1.410e-01</text>
<text x="1062.500" y="443.000" class="label" text-anchor="middle">time (s)</text>
<text x="742.000" y="270.000" class="label" text-anchor="middle" transform="rotate(-90.0 742.000 270.000)">r (m)</text>
<polyline points="810.096,392.727 822.716,387.084 835.337,381.415 847.957,375.720 860.577,369.999 873.197,364.252 885.817,358.480 898.438,352.682 911.058,346.858 923.678,341.009 936.298,335.134 948.918,329.233 961.538,323.307 974.159,317.356 986.779,311.379 999.399,305.378 1012.019,299.351 1024.639,293.298 1037.260,287.221 1049.880,281.118 1062.500,274.991 1075.120,268.839 1087.740,262.661 1100.361,256.459 1112.981,250.232 1125.601,243.980 1138.221,237.704 1150.841,231.403 1163.462,225.077 1176.082,218.727 1188.702,212.353 1201.322,205.954 1213.942,199.530 1226.562,193.083 1239.183,186.611 1251.803,180.114 1264.423,173.594 1277.043,167.050 1289.663,160.481 1302.284,153.889 1314.904,147.273" fill="none" stroke="#D97706" stroke-width="2.400" opacity="1.000" stroke-linejoin="round" stroke-linecap="round"/>
<polyline points="810.096,392.727 822.716,387.084 835.337,381.415 847.957,375.720 860.577,369.999 873.197,364.252 885.817,358.480 898.438,352.682 911.058,346.858 923.678,341.009 936.298,335.134 948.918,329.233 961.538,323.307 974.159,317.356 986.779,311.379 999.399,305.378 1012.019,299.351 1024.639,293.298 1037.260,287.221 1049.880,281.118 1062.500,274.991 1075.120,268.839 1087.740,262.661 1100.361,256.459 1112.981,250.232 1125.601,243.980 1138.221,237.704 1150.841,231.403 1163.462,225.077 1176.082,218.727 1188.702,212.353 1201.322,205.954 1213.942,199.530 1226.562,193.083 1239.183,186.611 1251.803,180.114 1264.423,173.594 1277.043,167.050 1289.663,160.481 1302.284,153.889 1314.904,147.273" fill="none" stroke="#1D4ED8" stroke-width="1.800" opacity="1.000" stroke-linejoin="round" stroke-linecap="round" stroke-dasharray="8 5"/>
<rect x="115.000" y="540.000" width="525.000" height="270.000" fill="none" stroke="#94A3B8" stroke-width="1.000"/>
<line x1="246.250" y1="540.000" x2="246.250" y2="810.000" stroke="#D7DEE8" stroke-width="1.000" opacity="1.000"/>
<line x1="115.000" y1="607.500" x2="640.000" y2="607.500" stroke="#D7DEE8" stroke-width="1.000" opacity="1.000"/>
<line x1="377.500" y1="540.000" x2="377.500" y2="810.000" stroke="#D7DEE8" stroke-width="1.000" opacity="1.000"/>
<line x1="115.000" y1="675.000" x2="640.000" y2="675.000" stroke="#D7DEE8" stroke-width="1.000" opacity="1.000"/>
<line x1="508.750" y1="540.000" x2="508.750" y2="810.000" stroke="#D7DEE8" stroke-width="1.000" opacity="1.000"/>
<line x1="115.000" y1="742.500" x2="640.000" y2="742.500" stroke="#D7DEE8" stroke-width="1.000" opacity="1.000"/>
<text x="115.000" y="828.000" class="small" text-anchor="start">-8.000e-06</text>
<text x="640.000" y="828.000" class="small" text-anchor="end">4.080e-04</text>
<text x="107.000" y="810.000" class="small" text-anchor="end">2.499e-02</text>
<text x="107.000" y="550.000" class="small" text-anchor="end">2.518e-02</text>
<text x="377.500" y="848.000" class="label" text-anchor="middle">time (s)</text>
<text x="57.000" y="675.000" class="label" text-anchor="middle" transform="rotate(-90.0 57.000 675.000)">z (m)</text>
<polyline points="125.096,797.727 137.716,796.734 150.337,795.466 162.957,793.924 175.577,792.109 188.197,790.021 200.817,787.662 213.438,785.031 226.058,782.130 238.678,778.960 251.298,775.520 263.918,771.813 276.538,767.840 289.159,763.600 301.779,759.094 314.399,754.325 327.019,749.292 339.639,743.997 352.260,738.441 364.880,732.624 377.500,726.548 390.120,720.213 402.740,713.621 415.361,706.773 427.981,699.670 440.601,692.313 453.221,684.703 465.841,676.841 478.462,668.728 491.082,660.366 503.702,651.756 516.322,642.898 528.942,633.795 541.562,624.448 554.183,614.857 566.803,605.023 579.423,594.950 592.043,584.636 604.663,574.085 617.284,563.296 629.904,552.273" fill="none" stroke="#D97706" stroke-width="2.400" opacity="1.000" stroke-linejoin="round" stroke-linecap="round"/>
<polyline points="125.096,797.727 137.716,796.734 150.337,795.466 162.957,793.924 175.577,792.109 188.197,790.021 200.817,787.662 213.438,785.031 226.058,782.130 238.678,778.960 251.298,775.520 263.918,771.813 276.538,767.840 289.159,763.600 301.779,759.094 314.399,754.325 327.019,749.292 339.639,743.997 352.260,738.441 364.880,732.624 377.500,726.548 390.120,720.213 402.740,713.621 415.361,706.773 427.981,699.670 440.601,692.313 453.221,684.703 465.841,676.841 478.462,668.728 491.082,660.366 503.702,651.756 516.322,642.898 528.942,633.795 541.562,624.448 554.183,614.857 566.803,605.023 579.423,594.950 592.043,584.636 604.663,574.085 617.284,563.296 629.904,552.273" fill="none" stroke="#1D4ED8" stroke-width="1.800" opacity="1.000" stroke-linejoin="round" stroke-linecap="round" stroke-dasharray="8 5"/>
<rect x="800.000" y="540.000" width="525.000" height="270.000" fill="none" stroke="#94A3B8" stroke-width="1.000"/>
<line x1="931.250" y1="540.000" x2="931.250" y2="810.000" stroke="#D7DEE8" stroke-width="1.000" opacity="1.000"/>
<line x1="800.000" y1="607.500" x2="1325.000" y2="607.500" stroke="#D7DEE8" stroke-width="1.000" opacity="1.000"/>
<line x1="1062.500" y1="540.000" x2="1062.500" y2="810.000" stroke="#D7DEE8" stroke-width="1.000" opacity="1.000"/>
<line x1="800.000" y1="675.000" x2="1325.000" y2="675.000" stroke="#D7DEE8" stroke-width="1.000" opacity="1.000"/>
<line x1="1193.750" y1="540.000" x2="1193.750" y2="810.000" stroke="#D7DEE8" stroke-width="1.000" opacity="1.000"/>
<line x1="800.000" y1="742.500" x2="1325.000" y2="742.500" stroke="#D7DEE8" stroke-width="1.000" opacity="1.000"/>
<text x="800.000" y="828.000" class="small" text-anchor="start">0.000e+00</text>
<text x="1325.000" y="828.000" class="small" text-anchor="end">4.000e-04</text>
<text x="792.000" y="810.000" class="small" text-anchor="end">-1.028e-16</text>
<text x="792.000" y="550.000" class="small" text-anchor="end">1.388e-15</text>
<text x="1062.500" y="848.000" class="label" text-anchor="middle">time (s)</text>
<text x="742.000" y="675.000" class="label" text-anchor="middle" transform="rotate(-90.0 742.000 675.000)">position difference (m)</text>
<polyline points="800.000,791.379 813.125,776.297 826.250,766.243 839.375,761.209 852.500,751.156 865.625,746.129 878.750,736.075 891.875,715.927 905.000,705.905 918.125,710.920 931.250,715.946 944.375,720.994 957.500,720.971 970.625,720.927 983.750,720.927 996.875,700.809 1010.000,705.894 1023.125,700.669 1036.250,705.684 1049.375,700.624 1062.500,695.563 1075.625,705.463 1088.750,675.000 1101.875,690.126 1115.000,685.060 1128.125,684.821 1141.250,684.733 1154.375,669.622 1167.500,669.622 1180.625,669.536 1193.750,654.585 1206.875,654.806 1220.000,659.404 1233.125,654.160 1246.250,659.034 1259.375,638.964 1272.500,613.893 1285.625,604.072 1298.750,593.939 1311.875,578.955 1325.000,558.621" fill="none" stroke="#7C3AED" stroke-width="2.200" opacity="1.000" stroke-linejoin="round" stroke-linecap="round"/>
<text x="378.000" y="122.000" class="label" text-anchor="middle">R-Z path</text>
<text x="1062.000" y="122.000" class="label" text-anchor="middle">radial coordinate</text>
<text x="378.000" y="527.000" class="label" text-anchor="middle">axial coordinate</text>
<text x="1062.000" y="527.000" class="label" text-anchor="middle">pointwise position difference</text>
</svg>
