<?xml version="1.0" encoding="UTF-8"?>
<svg xmlns="http://www.w3.org/2000/svg" width="1400" height="900" viewBox="0 0 1400 900" role="img" aria-label="Case A 100 nm exact-P1, dt=2.5 us: particle 50">
<title>Case A 100 nm exact-P1, dt=2.5 us: particle 50</title>
<rect width="100%" height="100%" fill="#FFFFFF"/>
<style>text{font-family:Arial,Helvetica,sans-serif;fill:#1F2937}.axis{stroke:#475569;stroke-width:1}.grid{stroke:#D7DEE8;stroke-width:1}.label{font-size:13px}.small{font-size:11px;fill:#64748B}.title{font-size:24px;font-weight:700}.subtitle{font-size:14px;fill:#64748B}</style>
<text x="65.000" y="48.000" class="title" text-anchor="start">Case A 100 nm exact-P1, dt=2.5 us: particle 50</text>
<text x="65.000" y="76.000" class="subtitle" text-anchor="start">Each panel uses its own displayed range; COMSOL solid orange, solver dashed blue</text>
<line x1="900.000" y1="60.000" x2="942.000" y2="60.000" stroke="#D97706" stroke-width="2.500" opacity="1.000"/>
<text x="950.000" y="65.000" class="label" text-anchor="start">COMSOL reference</text>
<line x1="1090.000" y1="60.000" x2="1132.000" y2="60.000" stroke="#1D4ED8" stroke-width="2.000" opacity="1.000" stroke-dasharray="8 5"/>
<text x="1140.000" y="65.000" class="label" text-anchor="start">solver candidate</text>
<rect x="115.000" y="135.000" width="525.000" height="270.000" fill="none" stroke="#94A3B8" stroke-width="1.000"/>
<line x1="246.250" y1="135.000" x2="246.250" y2="405.000" stroke="#D7DEE8" stroke-width="1.000" opacity="1.000"/>
<line x1="115.000" y1="202.500" x2="640.000" y2="202.500" stroke="#D7DEE8" stroke-width="1.000" opacity="1.000"/>
<line x1="377.500" y1="135.000" x2="377.500" y2="405.000" stroke="#D7DEE8" stroke-width="1.000" opacity="1.000"/>
<line x1="115.000" y1="270.000" x2="640.000" y2="270.000" stroke="#D7DEE8" stroke-width="1.000" opacity="1.000"/>
<line x1="508.750" y1="135.000" x2="508.750" y2="405.000" stroke="#D7DEE8" stroke-width="1.000" opacity="1.000"/>
<line x1="115.000" y1="337.500" x2="640.000" y2="337.500" stroke="#D7DEE8" stroke-width="1.000" opacity="1.000"/>
<text x="115.000" y="423.000" class="small" text-anchor="start">1.470e-01</text>
<text x="640.000" y="423.000" class="small" text-anchor="end">1.470e-01</text>
<text x="107.000" y="405.000" class="small" text-anchor="end">2.299e-02</text>
<text x="107.000" y="145.000" class="small" text-anchor="end">2.329e-02</text>
<text x="377.500" y="443.000" class="label" text-anchor="middle">r (m)</text>
<text x="57.000" y="270.000" class="label" text-anchor="middle" transform="rotate(-90.0 57.000 270.000)">z (m)</text>
<polyline points="125.096,392.727 128.731,392.022 132.840,391.028 137.424,389.744 142.480,388.172 148.009,386.313 154.008,384.168 160.476,381.737 167.413,379.020 174.817,376.019 182.687,372.735 191.022,369.169 199.821,365.321 209.082,361.192 218.804,356.783 228.986,352.096 239.627,347.130 250.725,341.888 262.278,336.369 274.287,330.576 286.749,324.508 299.663,318.168 313.027,311.556 326.841,304.673 341.102,297.520 355.810,290.099 370.964,282.410 386.564,274.455 402.609,266.234 419.100,257.749 436.036,249.001 453.418,239.990 471.246,230.718 489.518,221.186 508.236,211.395 527.400,201.346 547.009,191.040 567.064,180.479 587.565,169.663 608.511,158.594 629.904,147.273" fill="none" stroke="#D97706" stroke-width="2.400" opacity="1.000" stroke-linejoin="round" stroke-linecap="round"/>
<polyline points="125.096,392.727 128.731,392.022 132.840,391.028 137.424,389.744 142.480,388.172 148.009,386.313 154.008,384.168 160.476,381.737 167.413,379.020 174.817,376.019 182.687,372.735 191.022,369.169 199.821,365.321 209.082,361.192 218.804,356.783 228.986,352.096 239.627,347.130 250.725,341.888 262.278,336.369 274.287,330.576 286.749,324.508 299.663,318.168 313.027,311.556 326.841,304.673 341.102,297.520 355.810,290.099 370.964,282.410 386.564,274.455 402.609,266.234 419.100,257.749 436.036,249.001 453.418,239.990 471.246,230.718 489.518,221.186 508.236,211.395 527.400,201.346 547.009,191.040 567.064,180.479 587.565,169.663 608.511,158.594 629.904,147.273" fill="none" stroke="#1D4ED8" stroke-width="1.800" opacity="1.000" stroke-linejoin="round" stroke-linecap="round" stroke-dasharray="8 5"/>
<rect x="800.000" y="135.000" width="525.000" height="270.000" fill="none" stroke="#94A3B8" stroke-width="1.000"/>
<line x1="931.250" y1="135.000" x2="931.250" y2="405.000" stroke="#D7DEE8" stroke-width="1.000" opacity="1.000"/>
<line x1="800.000" y1="202.500" x2="1325.000" y2="202.500" stroke="#D7DEE8" stroke-width="1.000" opacity="1.000"/>
<line x1="1062.500" y1="135.000" x2="1062.500" y2="405.000" stroke="#D7DEE8" stroke-width="1.000" opacity="1.000"/>
<line x1="800.000" y1="270.000" x2="1325.000" y2="270.000" stroke="#D7DEE8" stroke-width="1.000" opacity="1.000"/>
<line x1="1193.750" y1="135.000" x2="1193.750" y2="405.000" stroke="#D7DEE8" stroke-width="1.000" opacity="1.000"/>
<line x1="800.000" y1="337.500" x2="1325.000" y2="337.500" stroke="#D7DEE8" stroke-width="1.000" opacity="1.000"/>
<text x="800.000" y="423.000" class="small" text-anchor="start">-8.000e-06</text>
<text x="1325.000" y="423.000" class="small" text-anchor="end">4.080e-04</text>
<text x="792.000" y="405.000" class="small" text-anchor="end">1.470e-01</text>
<text x="792.000" y="145.000" class="small" text-anchor="end">1.470e-01</text>
<text x="1062.500" y="443.000" class="label" text-anchor="middle">time (s)</text>
<text x="742.000" y="270.000" class="label" text-anchor="middle" transform="rotate(-90.0 742.000 270.000)">r (m)</text>
<polyline points="810.096,392.727 822.716,390.960 835.337,388.962 847.957,386.733 860.577,384.274 873.197,381.586 885.817,378.670 898.438,375.524 911.058,372.151 923.678,368.551 936.298,364.725 948.918,360.672 961.538,356.394 974.159,351.891 986.779,347.163 999.399,342.212 1012.019,337.039 1024.639,331.642 1037.260,326.025 1049.880,320.186 1062.500,314.126 1075.120,307.847 1087.740,301.349 1100.361,294.632 1112.981,287.698 1125.601,280.546 1138.221,273.178 1150.841,265.593 1163.462,257.791 1176.082,249.773 1188.702,241.538 1201.322,233.086 1213.942,224.418 1226.562,215.533 1239.183,206.432 1251.803,197.114 1264.423,187.579 1277.043,177.828 1289.663,167.859 1302.284,157.675 1314.904,147.273" fill="none" stroke="#D97706" stroke-width="2.400" opacity="1.000" stroke-linejoin="round" stroke-linecap="round"/>
<polyline points="810.096,392.727 822.716,390.960 835.337,388.962 847.957,386.733 860.577,384.274 873.197,381.586 885.817,378.670 898.438,375.524 911.058,372.151 923.678,368.551 936.298,364.725 948.918,360.672 961.538,356.394 974.159,351.891 986.779,347.163 999.399,342.212 1012.019,337.039 1024.639,331.642 1037.260,326.025 1049.880,320.186 1062.500,314.126 1075.120,307.847 1087.740,301.349 1100.361,294.632 1112.981,287.698 1125.601,280.546 1138.221,273.178 1150.841,265.593 1163.462,257.791 1176.082,249.773 1188.702,241.538 1201.322,233.086 1213.942,224.418 1226.562,215.533 1239.183,206.432 1251.803,197.114 1264.423,187.579 1277.043,177.828 1289.663,167.859 1302.284,157.675 1314.904,147.273" fill="none" stroke="#1D4ED8" stroke-width="1.800" opacity="1.000" stroke-linejoin="round" stroke-linecap="round" stroke-dasharray="8 5"/>
<rect x="115.000" y="540.000" width="525.000" height="270.000" fill="none" stroke="#94A3B8" stroke-width="1.000"/>
<line x1="246.250" y1="540.000" x2="246.250" y2="810.000" stroke="#D7DEE8" stroke-width="1.000" opacity="1.000"/>
<line x1="115.000" y1="607.500" x2="640.000" y2="607.500" stroke="#D7DEE8" stroke-width="1.000" opacity="1.000"/>
<line x1="377.500" y1="540.000" x2="377.500" y2="810.000" stroke="#D7DEE8" stroke-width="1.000" opacity="1.000"/>
<line x1="115.000" y1="675.000" x2="640.000" y2="675.000" stroke="#D7DEE8" stroke-width="1.000" opacity="1.000"/>
<line x1="508.750" y1="540.000" x2="508.750" y2="810.000" stroke="#D7DEE8" stroke-width="1.000" opacity="1.000"/>
<line x1="115.000" y1="742.500" x2="640.000" y2="742.500" stroke="#D7DEE8" stroke-width="1.000" opacity="1.000"/>
<text x="115.000" y="828.000" class="small" text-anchor="start">-8.000e-06</text>
<text x="640.000" y="828.000" class="small" text-anchor="end">4.080e-04</text>
<text x="107.000" y="810.000" class="small" text-anchor="end">2.299e-02</text>
<text x="107.000" y="550.000" class="small" text-anchor="end">2.329e-02</text>
<text x="377.500" y="848.000" class="label" text-anchor="middle">time (s)</text>
<text x="57.000" y="675.000" class="label" text-anchor="middle" transform="rotate(-90.0 57.000 675.000)">z (m)</text>
<polyline points="125.096,797.727 137.716,797.022 150.337,796.028 162.957,794.744 175.577,793.172 188.197,791.313 200.817,789.168 213.438,786.737 226.058,784.020 238.678,781.019 251.298,777.735 263.918,774.169 276.538,770.321 289.159,766.192 301.779,761.783 314.399,757.096 327.019,752.130 339.639,746.888 352.260,741.369 364.880,735.576 377.500,729.508 390.120,723.168 402.740,716.556 415.361,709.673 427.981,702.520 440.601,695.099 453.221,687.410 465.841,679.455 478.462,671.234 491.082,662.749 503.702,654.001 516.322,644.990 528.942,635.718 541.562,626.186 554.183,616.395 566.803,606.346 579.423,596.040 592.043,585.479 604.663,574.663 617.284,563.594 629.904,552.273" fill="none" stroke="#D97706" stroke-width="2.400" opacity="1.000" stroke-linejoin="round" stroke-linecap="round"/>
<polyline points="125.096,797.727 137.716,797.022 150.337,796.028 162.957,794.744 175.577,793.172 188.197,791.313 200.817,789.168 213.438,786.737 226.058,784.020 238.678,781.019 251.298,777.735 263.918,774.169 276.538,770.321 289.159,766.192 301.779,761.783 314.399,757.096 327.019,752.130 339.639,746.888 352.260,741.369 364.880,735.576 377.500,729.508 390.120,723.168 402.740,716.556 415.361,709.673 427.981,702.520 440.601,695.099 453.221,687.410 465.841,679.455 478.462,671.234 491.082,662.749 503.702,654.001 516.322,644.990 528.942,635.718 541.562,626.186 554.183,616.395 566.803,606.346 579.423,596.040 592.043,585.479 604.663,574.663 617.284,563.594 629.904,552.273" fill="none" stroke="#1D4ED8" stroke-width="1.800" opacity="1.000" stroke-linejoin="round" stroke-linecap="round" stroke-dasharray="8 5"/>
<rect x="800.000" y="540.000" width="525.000" height="270.000" fill="none" stroke="#94A3B8" stroke-width="1.000"/>
<line x1="931.250" y1="540.000" x2="931.250" y2="810.000" stroke="#D7DEE8" stroke-width="1.000" opacity="1.000"/>
<line x1="800.000" y1="607.500" x2="1325.000" y2="607.500" stroke="#D7DEE8" stroke-width="1.000" opacity="1.000"/>
<line x1="1062.500" y1="540.000" x2="1062.500" y2="810.000" stroke="#D7DEE8" stroke-width="1.000" opacity="1.000"/>
<line x1="800.000" y1="675.000" x2="1325.000" y2="675.000" stroke="#D7DEE8" stroke-width="1.000" opacity="1.000"/>
<line x1="1193.750" y1="540.000" x2="1193.750" y2="810.000" stroke="#D7DEE8" stroke-width="1.000" opacity="1.000"/>
<line x1="800.000" y1="742.500" x2="1325.000" y2="742.500" stroke="#D7DEE8" stroke-width="1.000" opacity="1.000"/>
<text x="800.000" y="828.000" class="small" text-anchor="start">0.000e+00</text>
<text x="1325.000" y="828.000" class="small" text-anchor="end">4.000e-04</text>
<text x="792.000" y="810.000" class="small" text-anchor="end">-1.585e-16</text>
<text x="792.000" y="550.000" class="small" text-anchor="end">2.139e-15</text>
<text x="1062.500" y="848.000" class="label" text-anchor="middle">time (s)</text>
<text x="742.000" y="675.000" class="label" text-anchor="middle" transform="rotate(-90.0 742.000 675.000)">position difference (m)</text>
<polyline points="800.000,791.379 813.125,784.844 826.250,778.334 839.375,771.773 852.500,761.957 865.625,761.926 878.750,755.357 891.875,742.290 905.000,735.815 918.125,726.071 931.250,725.999 944.375,719.463 957.500,716.182 970.625,712.836 983.750,706.302 996.875,693.265 1010.000,696.450 1023.125,693.010 1036.250,683.235 1049.375,679.908 1062.500,673.457 1075.625,673.418 1088.750,657.107 1101.875,657.069 1115.000,650.459 1128.125,643.927 1141.250,634.149 1154.375,621.084 1167.500,621.008 1180.625,617.722 1193.750,614.315 1206.875,607.785 1220.000,601.295 1233.125,598.088 1246.250,601.295 1259.375,601.213 1272.500,594.598 1285.625,591.355 1298.750,584.739 1311.875,575.009 1325.000,558.621" fill="none" stroke="#7C3AED" stroke-width="2.200" opacity="1.000" stroke-linejoin="round" stroke-linecap="round"/>
<text x="378.000" y="122.000" class="label" text-anchor="middle">R-Z path</text>
<text x="1062.000" y="122.000" class="label" text-anchor="middle">radial coordinate</text>
<text x="378.000" y="527.000" class="label" text-anchor="middle">axial coordinate</text>
<text x="1062.000" y="527.000" class="label" text-anchor="middle">pointwise position difference</text>
</svg>
